<?xml version="1.0" encoding="UTF-8" standalone="no"?><!DOCTYPE svg PUBLIC "-//W3C//DTD SVG 1.1//EN" "http://www.w3.org/Graphics/SVG/1.1/DTD/svg11.dtd"><svg width="100%" height="100%" viewBox="0 0 622 89" version="1.1" xmlns="http://www.w3.org/2000/svg" xmlns:xlink="http://www.w3.org/1999/xlink" xml:space="preserve" xmlns:serif="http://www.serif.com/" style="fill-rule:evenodd;clip-rule:evenodd;stroke-linejoin:round;stroke-miterlimit:1.41421;"><path d="M0,68.719l0,-68.719l9.094,0l0,34.078l34.125,-34.078l12.328,0l-28.828,27.844l30.093,40.875l-12,0l-24.468,-34.782l-11.25,10.969l0,23.813l-9.094,0Z" style="fill:url(#_Linear1);fill-rule:nonzero;"/><path d="M95.812,62.578c-3.124,2.656 -6.132,4.531 -9.023,5.625c-2.891,1.094 -5.992,1.641 -9.305,1.641c-5.468,0 -9.671,-1.336 -12.609,-4.008c-2.937,-2.672 -4.406,-6.086 -4.406,-10.242c0,-2.438 0.554,-4.664 1.664,-6.68c1.109,-2.016 2.562,-3.633 4.359,-4.852c1.797,-1.218 3.82,-2.14 6.07,-2.765c1.657,-0.438 4.157,-0.86 7.5,-1.266c6.813,-0.812 11.829,-1.781 15.047,-2.906c0.032,-1.156 0.047,-1.891 0.047,-2.203c0,-3.438 -0.797,-5.86 -2.39,-7.266c-2.157,-1.906 -5.36,-2.859 -9.61,-2.859c-3.968,0 -6.898,0.695 -8.789,2.086c-1.89,1.39 -3.289,3.851 -4.195,7.383l-8.25,-1.125c0.75,-3.532 1.984,-6.383 3.703,-8.555c1.719,-2.172 4.203,-3.844 7.453,-5.016c3.25,-1.172 7.016,-1.758 11.297,-1.758c4.25,0 7.703,0.5 10.359,1.5c2.657,1 4.61,2.258 5.86,3.774c1.25,1.516 2.125,3.43 2.625,5.742c0.281,1.438 0.422,4.031 0.422,7.781l0,11.25c0,7.844 0.179,12.805 0.539,14.883c0.359,2.078 1.07,4.07 2.132,5.977l-8.812,0c-0.875,-1.75 -1.437,-3.797 -1.688,-6.141Zm-0.703,-18.844c-3.062,1.25 -7.656,2.313 -13.781,3.188c-3.469,0.5 -5.922,1.062 -7.359,1.687c-1.438,0.625 -2.547,1.539 -3.328,2.743c-0.782,1.203 -1.172,2.539 -1.172,4.007c0,2.25 0.851,4.125 2.554,5.625c1.704,1.5 4.196,2.25 7.477,2.25c3.25,0 6.141,-0.711 8.672,-2.132c2.531,-1.422 4.391,-3.368 5.578,-5.836c0.906,-1.907 1.359,-4.719 1.359,-8.438l0,-3.094Z" style="fill:url(#_Linear2);fill-rule:nonzero;"/><path d="M116.625,68.719l0,-49.782l7.594,0l0,7.547c1.937,-3.531 3.726,-5.859 5.367,-6.984c1.641,-1.125 3.445,-1.688 5.414,-1.688c2.844,0 5.734,0.907 8.672,2.719l-2.906,7.828c-2.063,-1.218 -4.125,-1.828 -6.188,-1.828c-1.844,0 -3.5,0.555 -4.969,1.664c-1.468,1.11 -2.515,2.649 -3.14,4.617c-0.938,3 -1.407,6.282 -1.407,9.844l0,26.063l-8.437,0Z" style="fill:url(#_Linear3);fill-rule:nonzero;"/><path d="M148.687,68.719l0,-49.782l7.547,0l0,6.985c1.563,-2.438 3.641,-4.399 6.235,-5.883c2.594,-1.484 5.547,-2.227 8.859,-2.227c3.688,0 6.711,0.766 9.07,2.297c2.36,1.532 4.024,3.672 4.993,6.422c3.937,-5.812 9.062,-8.719 15.375,-8.719c4.937,0 8.734,1.368 11.39,4.102c2.657,2.734 3.985,6.945 3.985,12.633l0,34.172l-8.391,0l0,-31.36c0,-3.375 -0.273,-5.804 -0.82,-7.289c-0.547,-1.484 -1.539,-2.679 -2.977,-3.586c-1.437,-0.906 -3.125,-1.359 -5.062,-1.359c-3.5,0 -6.407,1.164 -8.719,3.492c-2.313,2.328 -3.469,6.055 -3.469,11.18l0,28.922l-8.437,0l0,-32.344c0,-3.75 -0.688,-6.563 -2.063,-8.438c-1.375,-1.875 -3.625,-2.812 -6.75,-2.812c-2.375,0 -4.57,0.625 -6.586,1.875c-2.015,1.25 -3.476,3.078 -4.383,5.484c-0.906,2.407 -1.359,5.875 -1.359,10.407l0,25.828l-8.438,0Z" style="fill:url(#_Linear4);fill-rule:nonzero;"/><path d="M228.703,9.703l0,-9.703l8.438,0l0,9.703l-8.438,0Zm0,59.016l0,-49.782l8.438,0l0,49.782l-8.438,0Z" style="fill:url(#_Linear5);fill-rule:nonzero;"/><path d="M282.469,50.484l8.297,1.078c-0.907,5.719 -3.227,10.196 -6.961,13.43c-3.735,3.235 -8.321,4.852 -13.758,4.852c-6.813,0 -12.289,-2.227 -16.43,-6.68c-4.14,-4.453 -6.211,-10.836 -6.211,-19.148c0,-5.375 0.891,-10.079 2.672,-14.11c1.781,-4.031 4.492,-7.054 8.133,-9.07c3.641,-2.016 7.602,-3.024 11.883,-3.024c5.406,0 9.828,1.368 13.265,4.102c3.438,2.734 5.641,6.617 6.61,11.648l-8.203,1.266c-0.782,-3.344 -2.164,-5.859 -4.149,-7.547c-1.984,-1.687 -4.383,-2.531 -7.195,-2.531c-4.25,0 -7.703,1.523 -10.36,4.57c-2.656,3.047 -3.984,7.867 -3.984,14.461c0,6.688 1.281,11.547 3.844,14.578c2.562,3.032 5.906,4.547 10.031,4.547c3.313,0 6.078,-1.015 8.297,-3.047c2.219,-2.031 3.625,-5.156 4.219,-9.375Z" style="fill:url(#_Linear6);fill-rule:nonzero;"/><path d="M325.922,68.719l0,-68.719l49.687,0l0,8.109l-40.593,0l0,21.047l38.015,0l0,8.063l-38.015,0l0,23.39l42.187,0l0,8.11l-51.281,0Z" style="fill:url(#_Linear7);fill-rule:nonzero;"/><path d="M388.687,68.719l0,-49.782l7.594,0l0,7.079c3.656,-5.469 8.938,-8.204 15.844,-8.204c3,0 5.758,0.54 8.273,1.618c2.516,1.078 4.399,2.492 5.649,4.242c1.25,1.75 2.125,3.828 2.625,6.234c0.312,1.563 0.469,4.297 0.469,8.203l0,30.61l-8.438,0l0,-30.282c0,-3.437 -0.328,-6.007 -0.984,-7.71c-0.657,-1.704 -1.821,-3.063 -3.492,-4.079c-1.672,-1.015 -3.633,-1.523 -5.883,-1.523c-3.594,0 -6.696,1.141 -9.305,3.422c-2.609,2.281 -3.914,6.609 -3.914,12.984l0,27.188l-8.438,0Z" style="fill:url(#_Linear8);fill-rule:nonzero;"/><path d="M476.156,52.687l8.719,1.079c-1.375,5.093 -3.922,9.046 -7.641,11.859c-3.718,2.812 -8.468,4.219 -14.25,4.219c-7.281,0 -13.054,-2.242 -17.32,-6.727c-4.266,-4.484 -6.398,-10.773 -6.398,-18.867c0,-8.375 2.156,-14.875 6.468,-19.5c4.313,-4.625 9.907,-6.938 16.782,-6.938c6.656,0 12.093,2.266 16.312,6.797c4.219,4.532 6.328,10.907 6.328,19.125c0,0.5 -0.015,1.25 -0.047,2.25l-37.125,0c0.313,5.469 1.86,9.657 4.641,12.563c2.781,2.906 6.25,4.359 10.406,4.359c3.094,0 5.735,-0.812 7.922,-2.437c2.188,-1.625 3.922,-4.219 5.203,-7.782Zm-27.703,-13.64l27.797,0c-0.375,-4.188 -1.437,-7.328 -3.188,-9.422c-2.687,-3.25 -6.171,-4.875 -10.453,-4.875c-3.875,0 -7.132,1.297 -9.773,3.891c-2.641,2.593 -4.102,6.062 -4.383,10.406Z" style="fill:url(#_Linear9);fill-rule:nonzero;"/><path d="M495.375,68.719l0,-49.782l7.594,0l0,7.547c1.937,-3.531 3.726,-5.859 5.367,-6.984c1.641,-1.125 3.445,-1.688 5.414,-1.688c2.844,0 5.734,0.907 8.672,2.719l-2.906,7.828c-2.063,-1.218 -4.125,-1.828 -6.188,-1.828c-1.844,0 -3.5,0.555 -4.969,1.664c-1.468,1.11 -2.515,2.649 -3.14,4.617c-0.938,3 -1.407,6.282 -1.407,9.844l0,26.063l-8.437,0Z" style="fill:url(#_Linear10);fill-rule:nonzero;"/><path d="M525.891,72.844l8.203,1.218c0.344,2.532 1.297,4.375 2.859,5.532c2.094,1.562 4.953,2.343 8.578,2.343c3.907,0 6.922,-0.781 9.047,-2.343c2.125,-1.563 3.563,-3.75 4.313,-6.563c0.437,-1.719 0.64,-5.328 0.609,-10.828c-3.687,4.344 -8.281,6.516 -13.781,6.516c-6.844,0 -12.141,-2.469 -15.891,-7.407c-3.75,-4.937 -5.625,-10.859 -5.625,-17.765c0,-4.75 0.86,-9.133 2.578,-13.149c1.719,-4.015 4.211,-7.117 7.477,-9.304c3.265,-2.188 7.101,-3.282 11.508,-3.282c5.875,0 10.718,2.375 14.531,7.125l0,-6l7.781,0l0,43.032c0,7.75 -0.789,13.242 -2.367,16.476c-1.578,3.235 -4.078,5.789 -7.5,7.664c-3.422,1.875 -7.633,2.813 -12.633,2.813c-5.937,0 -10.734,-1.336 -14.391,-4.008c-3.656,-2.672 -5.421,-6.695 -5.296,-12.07Zm6.984,-29.907c0,6.532 1.297,11.297 3.891,14.297c2.593,3 5.843,4.5 9.75,4.5c3.875,0 7.125,-1.492 9.75,-4.476c2.625,-2.985 3.937,-7.664 3.937,-14.039c0,-6.094 -1.351,-10.688 -4.055,-13.782c-2.703,-3.093 -5.96,-4.64 -9.773,-4.64c-3.75,0 -6.938,1.523 -9.563,4.57c-2.625,3.047 -3.937,7.57 -3.937,13.57Z" style="fill:url(#_Linear11);fill-rule:nonzero;"/><path d="M580.453,87.891l-0.937,-7.922c1.843,0.5 3.453,0.75 4.828,0.75c1.875,0 3.375,-0.313 4.5,-0.938c1.125,-0.625 2.047,-1.5 2.765,-2.625c0.532,-0.844 1.391,-2.937 2.578,-6.281c0.157,-0.469 0.407,-1.156 0.75,-2.063l-18.89,-49.875l9.094,0l10.359,28.829c1.344,3.656 2.547,7.5 3.609,11.531c0.969,-3.875 2.125,-7.656 3.469,-11.344l10.641,-29.016l8.437,0l-18.937,50.625c-2.031,5.469 -3.61,9.235 -4.735,11.297c-1.5,2.782 -3.218,4.821 -5.156,6.118c-1.937,1.296 -4.25,1.945 -6.937,1.945c-1.625,0 -3.438,-0.344 -5.438,-1.031Z" style="fill:url(#_Linear12);fill-rule:nonzero;"/><defs><linearGradient id="_Linear1" x1="0" y1="0" x2="1" y2="0" gradientUnits="userSpaceOnUse" gradientTransform="matrix(616.374,0,0,36.704,-106.038,-0.252065)"><stop offset="0" style="stop-color:#fff607;stop-opacity:1"/><stop offset="0.11" style="stop-color:#abee69;stop-opacity:1"/><stop offset="0.26" style="stop-color:#96ec82;stop-opacity:1"/><stop offset="0.54" style="stop-color:#90eb89;stop-opacity:1"/><stop offset="0.61" style="stop-color:#80e99c;stop-opacity:1"/><stop offset="0.67" style="stop-color:#6be7b3;stop-opacity:1"/><stop offset="1" style="stop-color:#2de1fc;stop-opacity:1"/></linearGradient><linearGradient id="_Linear2" x1="0" y1="0" x2="1" y2="0" gradientUnits="userSpaceOnUse" gradientTransform="matrix(616.374,0,0,36.704,-106.038,-0.252065)"><stop offset="0" style="stop-color:#fff607;stop-opacity:1"/><stop offset="0.11" style="stop-color:#abee69;stop-opacity:1"/><stop offset="0.26" style="stop-color:#96ec82;stop-opacity:1"/><stop offset="0.54" style="stop-color:#90eb89;stop-opacity:1"/><stop offset="0.61" style="stop-color:#80e99c;stop-opacity:1"/><stop offset="0.67" style="stop-color:#6be7b3;stop-opacity:1"/><stop offset="1" style="stop-color:#2de1fc;stop-opacity:1"/></linearGradient><linearGradient id="_Linear3" x1="0" y1="0" x2="1" y2="0" gradientUnits="userSpaceOnUse" gradientTransform="matrix(616.374,0,0,36.704,-106.038,-0.252065)"><stop offset="0" style="stop-color:#fff607;stop-opacity:1"/><stop offset="0.11" style="stop-color:#abee69;stop-opacity:1"/><stop offset="0.26" style="stop-color:#96ec82;stop-opacity:1"/><stop offset="0.54" style="stop-color:#90eb89;stop-opacity:1"/><stop offset="0.61" style="stop-color:#80e99c;stop-opacity:1"/><stop offset="0.67" style="stop-color:#6be7b3;stop-opacity:1"/><stop offset="1" style="stop-color:#2de1fc;stop-opacity:1"/></linearGradient><linearGradient id="_Linear4" x1="0" y1="0" x2="1" y2="0" gradientUnits="userSpaceOnUse" gradientTransform="matrix(616.374,0,0,36.704,-106.038,-0.252065)"><stop offset="0" style="stop-color:#fff607;stop-opacity:1"/><stop offset="0.11" style="stop-color:#abee69;stop-opacity:1"/><stop offset="0.26" style="stop-color:#96ec82;stop-opacity:1"/><stop offset="0.54" style="stop-color:#90eb89;stop-opacity:1"/><stop offset="0.61" style="stop-color:#80e99c;stop-opacity:1"/><stop offset="0.67" style="stop-color:#6be7b3;stop-opacity:1"/><stop offset="1" style="stop-color:#2de1fc;stop-opacity:1"/></linearGradient><linearGradient id="_Linear5" x1="0" y1="0" x2="1" y2="0" gradientUnits="userSpaceOnUse" gradientTransform="matrix(616.374,0,0,36.704,-106.038,-0.252065)"><stop offset="0" style="stop-color:#fff607;stop-opacity:1"/><stop offset="0.11" style="stop-color:#abee69;stop-opacity:1"/><stop offset="0.26" style="stop-color:#96ec82;stop-opacity:1"/><stop offset="0.54" style="stop-color:#90eb89;stop-opacity:1"/><stop offset="0.61" style="stop-color:#80e99c;stop-opacity:1"/><stop offset="0.67" style="stop-color:#6be7b3;stop-opacity:1"/><stop offset="1" style="stop-color:#2de1fc;stop-opacity:1"/></linearGradient><linearGradient id="_Linear6" x1="0" y1="0" x2="1" y2="0" gradientUnits="userSpaceOnUse" gradientTransform="matrix(616.374,0,0,36.704,-106.038,-0.252065)"><stop offset="0" style="stop-color:#fff607;stop-opacity:1"/><stop offset="0.11" style="stop-color:#abee69;stop-opacity:1"/><stop offset="0.26" style="stop-color:#96ec82;stop-opacity:1"/><stop offset="0.54" style="stop-color:#90eb89;stop-opacity:1"/><stop offset="0.61" style="stop-color:#80e99c;stop-opacity:1"/><stop offset="0.67" style="stop-color:#6be7b3;stop-opacity:1"/><stop offset="1" style="stop-color:#2de1fc;stop-opacity:1"/></linearGradient><linearGradient id="_Linear7" x1="0" y1="0" x2="1" y2="0" gradientUnits="userSpaceOnUse" gradientTransform="matrix(616.374,0,0,36.704,-106.038,-0.252065)"><stop offset="0" style="stop-color:#fff607;stop-opacity:1"/><stop offset="0.11" style="stop-color:#abee69;stop-opacity:1"/><stop offset="0.26" style="stop-color:#96ec82;stop-opacity:1"/><stop offset="0.54" style="stop-color:#90eb89;stop-opacity:1"/><stop offset="0.61" style="stop-color:#80e99c;stop-opacity:1"/><stop offset="0.67" style="stop-color:#6be7b3;stop-opacity:1"/><stop offset="1" style="stop-color:#2de1fc;stop-opacity:1"/></linearGradient><linearGradient id="_Linear8" x1="0" y1="0" x2="1" y2="0" gradientUnits="userSpaceOnUse" gradientTransform="matrix(616.374,0,0,36.704,-106.038,-0.252065)"><stop offset="0" style="stop-color:#fff607;stop-opacity:1"/><stop offset="0.11" style="stop-color:#abee69;stop-opacity:1"/><stop offset="0.26" style="stop-color:#96ec82;stop-opacity:1"/><stop offset="0.54" style="stop-color:#90eb89;stop-opacity:1"/><stop offset="0.61" style="stop-color:#80e99c;stop-opacity:1"/><stop offset="0.67" style="stop-color:#6be7b3;stop-opacity:1"/><stop offset="1" style="stop-color:#2de1fc;stop-opacity:1"/></linearGradient><linearGradient id="_Linear9" x1="0" y1="0" x2="1" y2="0" gradientUnits="userSpaceOnUse" gradientTransform="matrix(616.374,0,0,36.704,-106.038,-0.252065)"><stop offset="0" style="stop-color:#fff607;stop-opacity:1"/><stop offset="0.11" style="stop-color:#abee69;stop-opacity:1"/><stop offset="0.26" style="stop-color:#96ec82;stop-opacity:1"/><stop offset="0.54" style="stop-color:#90eb89;stop-opacity:1"/><stop offset="0.61" style="stop-color:#80e99c;stop-opacity:1"/><stop offset="0.67" style="stop-color:#6be7b3;stop-opacity:1"/><stop offset="1" style="stop-color:#2de1fc;stop-opacity:1"/></linearGradient><linearGradient id="_Linear10" x1="0" y1="0" x2="1" y2="0" gradientUnits="userSpaceOnUse" gradientTransform="matrix(616.374,0,0,36.704,-106.038,-0.252065)"><stop offset="0" style="stop-color:#fff607;stop-opacity:1"/><stop offset="0.11" style="stop-color:#abee69;stop-opacity:1"/><stop offset="0.26" style="stop-color:#96ec82;stop-opacity:1"/><stop offset="0.54" style="stop-color:#90eb89;stop-opacity:1"/><stop offset="0.61" style="stop-color:#80e99c;stop-opacity:1"/><stop offset="0.67" style="stop-color:#6be7b3;stop-opacity:1"/><stop offset="1" style="stop-color:#2de1fc;stop-opacity:1"/></linearGradient><linearGradient id="_Linear11" x1="0" y1="0" x2="1" y2="0" gradientUnits="userSpaceOnUse" gradientTransform="matrix(616.374,0,0,36.704,-106.038,-0.252065)"><stop offset="0" style="stop-color:#fff607;stop-opacity:1"/><stop offset="0.11" style="stop-color:#abee69;stop-opacity:1"/><stop offset="0.26" style="stop-color:#96ec82;stop-opacity:1"/><stop offset="0.54" style="stop-color:#90eb89;stop-opacity:1"/><stop offset="0.61" style="stop-color:#80e99c;stop-opacity:1"/><stop offset="0.67" style="stop-color:#6be7b3;stop-opacity:1"/><stop offset="1" style="stop-color:#2de1fc;stop-opacity:1"/></linearGradient><linearGradient id="_Linear12" x1="0" y1="0" x2="1" y2="0" gradientUnits="userSpaceOnUse" gradientTransform="matrix(616.374,0,0,36.704,-106.038,-0.252065)"><stop offset="0" style="stop-color:#fff607;stop-opacity:1"/><stop offset="0.11" style="stop-color:#abee69;stop-opacity:1"/><stop offset="0.26" style="stop-color:#96ec82;stop-opacity:1"/><stop offset="0.54" style="stop-color:#90eb89;stop-opacity:1"/><stop offset="0.61" style="stop-color:#80e99c;stop-opacity:1"/><stop offset="0.67" style="stop-color:#6be7b3;stop-opacity:1"/><stop offset="1" style="stop-color:#2de1fc;stop-opacity:1"/></linearGradient></defs></svg>