<?xml version="1.0" encoding="UTF-8" standalone="no"?>
<!DOCTYPE svg PUBLIC "-//W3C//DTD SVG 1.1//EN" "http://www.w3.org/Graphics/SVG/1.1/DTD/svg11.dtd">
<svg width="100%" height="100%" viewBox="0 0 170 126" version="1.1" xmlns="http://www.w3.org/2000/svg" xmlns:xlink="http://www.w3.org/1999/xlink" xml:space="preserve" xmlns:serif="http://www.serif.com/" style="fill-rule:evenodd;clip-rule:evenodd;stroke-linecap:round;stroke-linejoin:round;stroke-miterlimit:1.5;">
    <g transform="matrix(1,0,0,1,-555.074,-24.6992)">
        <g id="Icon" transform="matrix(0.236268,0,0,0.236268,500.953,-6.95151)">
            <g transform="matrix(1.22302,0,0,1.22302,-799.388,-11.6773)">
                <path d="M1127.98,124.272C1182.53,171.22 1217.98,246.972 1217.98,332.361C1217.98,417.749 1182.53,493.501 1127.98,540.449C1073.42,493.501 1037.97,417.749 1037.97,332.361C1037.97,246.972 1073.42,171.22 1127.98,124.272Z" style="fill:rgb(173,255,164);stroke:white;stroke-width:10.38px;"/>
            </g>
            <g transform="matrix(-0.495615,-0.868542,-0.868542,0.495615,1608.59,1357.67)">
                <path d="M1127.98,124.272C1182.53,171.22 1217.98,246.972 1217.98,332.361C1217.98,417.749 1182.53,493.501 1127.98,540.449C1073.42,493.501 1037.97,417.749 1037.97,332.361C1037.97,246.972 1073.42,171.22 1127.98,124.272Z" style="fill:rgb(128,255,215);stroke:white;stroke-width:12.7px;"/>
            </g>
            <g transform="matrix(-0.944397,-0.565125,-0.565125,0.944397,1949.97,776.351)">
                <path d="M1127.98,124.272C1182.53,171.22 1217.98,246.972 1217.98,332.361C1217.98,417.749 1182.53,493.501 1127.98,540.449C1073.42,493.501 1037.97,417.749 1037.97,332.361C1037.97,246.972 1073.42,171.22 1127.98,124.272Z" style="fill:rgb(125,255,157);stroke:white;stroke-width:11.54px;"/>
            </g>
            <g transform="matrix(0.944397,-0.565125,0.565125,0.944397,-790.803,776.351)">
                <path d="M1127.98,124.272C1182.53,171.22 1217.98,246.972 1217.98,332.361C1217.98,417.749 1182.53,493.501 1127.98,540.449C1073.42,493.501 1037.97,417.749 1037.97,332.361C1037.97,246.972 1073.42,171.22 1127.98,124.272Z" style="fill:rgb(220,255,164);stroke:white;stroke-width:11.54px;"/>
            </g>
            <g transform="matrix(0.560237,-0.828332,0.828332,0.560237,-499.459,1282.95)">
                <path d="M1127.98,124.272C1182.53,171.22 1217.98,246.972 1217.98,332.361C1217.98,417.749 1182.53,493.501 1127.98,540.449C1073.42,493.501 1037.97,417.749 1037.97,332.361C1037.97,246.972 1073.42,171.22 1127.98,124.272Z" style="fill:rgb(255,255,157);stroke:white;stroke-width:12.7px;"/>
            </g>
        </g>
    </g>
</svg>
