<?xml version="1.0" encoding="UTF-8" standalone="no"?>
<!DOCTYPE svg PUBLIC "-//W3C//DTD SVG 1.1//EN" "http://www.w3.org/Graphics/SVG/1.1/DTD/svg11.dtd">
<svg width="100%" height="100%" viewBox="0 0 583 84" version="1.1" xmlns="http://www.w3.org/2000/svg" xmlns:xlink="http://www.w3.org/1999/xlink" xml:space="preserve" xmlns:serif="http://www.serif.com/" style="fill-rule:evenodd;clip-rule:evenodd;stroke-linejoin:round;stroke-miterlimit:1.41421;">
    <g transform="matrix(1,0,0,1,-348.746,-228.886)">
        <g id="Wordmark" transform="matrix(7.4962,0,0,7.4962,-2839.51,-2155.72)">
            <path d="M425.316,326.699L425.316,318.109L426.453,318.109L426.453,322.369L430.719,318.109L432.26,318.109L428.656,321.589L432.418,326.699L430.918,326.699L427.859,322.351L426.453,323.722L426.453,326.699L425.316,326.699Z" style="fill:url(#_Linear1);fill-rule:nonzero;"/>
            <path d="M437.293,325.931C436.902,326.263 436.526,326.498 436.165,326.634C435.804,326.771 435.416,326.839 435.002,326.839C434.318,326.839 433.793,326.672 433.426,326.338C433.058,326.005 432.875,325.578 432.875,325.058C432.875,324.754 432.944,324.475 433.083,324.223C433.221,323.971 433.403,323.769 433.628,323.617C433.852,323.464 434.105,323.349 434.387,323.271C434.594,323.216 434.906,323.164 435.324,323.113C436.176,323.011 436.803,322.89 437.205,322.75C437.209,322.605 437.211,322.513 437.211,322.474C437.211,322.045 437.111,321.742 436.912,321.566C436.642,321.328 436.242,321.209 435.711,321.209C435.215,321.209 434.848,321.296 434.612,321.469C434.376,321.643 434.201,321.951 434.088,322.392L433.056,322.252C433.15,321.81 433.304,321.454 433.519,321.182C433.734,320.911 434.045,320.702 434.451,320.555C434.857,320.409 435.328,320.336 435.863,320.336C436.394,320.336 436.826,320.398 437.158,320.523C437.49,320.648 437.734,320.805 437.89,320.995C438.047,321.184 438.156,321.423 438.219,321.713C438.254,321.892 438.271,322.216 438.271,322.685L438.271,324.091C438.271,325.072 438.294,325.692 438.339,325.952C438.384,326.212 438.472,326.461 438.605,326.699L437.504,326.699C437.394,326.48 437.324,326.224 437.293,325.931ZM437.205,323.576C436.822,323.732 436.248,323.865 435.482,323.974C435.049,324.037 434.742,324.107 434.562,324.185C434.383,324.263 434.244,324.378 434.146,324.528C434.049,324.678 434,324.845 434,325.029C434,325.31 434.106,325.545 434.319,325.732C434.532,325.92 434.844,326.013 435.254,326.013C435.66,326.013 436.021,325.924 436.338,325.747C436.654,325.569 436.887,325.326 437.035,325.017C437.148,324.779 437.205,324.427 437.205,323.963L437.205,323.576Z" style="fill:url(#_Linear2);fill-rule:nonzero;"/>
            <path d="M439.894,326.699L439.894,320.476L440.844,320.476L440.844,321.42C441.086,320.978 441.309,320.687 441.514,320.546C441.72,320.406 441.945,320.336 442.191,320.336C442.547,320.336 442.908,320.449 443.275,320.675L442.912,321.654C442.654,321.502 442.396,321.425 442.138,321.425C441.908,321.425 441.701,321.495 441.517,321.633C441.334,321.772 441.203,321.964 441.125,322.211C441.008,322.586 440.949,322.996 440.949,323.441L440.949,326.699L439.894,326.699Z" style="fill:url(#_Linear3);fill-rule:nonzero;"/>
            <path d="M443.902,326.699L443.902,320.476L444.846,320.476L444.846,321.349C445.041,321.045 445.301,320.799 445.625,320.614C445.949,320.428 446.318,320.336 446.732,320.336C447.193,320.336 447.571,320.431 447.866,320.623C448.161,320.814 448.369,321.082 448.49,321.425C448.982,320.699 449.623,320.336 450.412,320.336C451.029,320.336 451.504,320.506 451.836,320.848C452.168,321.19 452.334,321.716 452.334,322.427L452.334,326.699L451.285,326.699L451.285,322.779C451.285,322.357 451.251,322.053 451.182,321.868C451.114,321.682 450.99,321.533 450.81,321.42C450.631,321.306 450.42,321.25 450.178,321.25C449.74,321.25 449.377,321.395 449.088,321.686C448.799,321.977 448.654,322.443 448.654,323.084L448.654,326.699L447.599,326.699L447.599,322.656C447.599,322.187 447.513,321.836 447.342,321.601C447.17,321.367 446.888,321.25 446.498,321.25C446.201,321.25 445.927,321.328 445.675,321.484C445.423,321.64 445.24,321.869 445.127,322.17C445.013,322.47 444.957,322.904 444.957,323.47L444.957,326.699L443.902,326.699Z" style="fill:url(#_Linear4);fill-rule:nonzero;"/>
            <path d="M453.904,319.322L453.904,318.109L454.959,318.109L454.959,319.322L453.904,319.322ZM453.904,326.699L453.904,320.476L454.959,320.476L454.959,326.699L453.904,326.699Z" style="fill:url(#_Linear5);fill-rule:nonzero;"/>
            <path d="M460.625,324.42L461.662,324.554C461.549,325.269 461.259,325.829 460.792,326.233C460.325,326.637 459.752,326.839 459.072,326.839C458.221,326.839 457.536,326.561 457.018,326.005C456.501,325.448 456.242,324.65 456.242,323.611C456.242,322.939 456.353,322.351 456.576,321.847C456.799,321.343 457.138,320.965 457.593,320.713C458.048,320.462 458.543,320.336 459.078,320.336C459.754,320.336 460.306,320.506 460.736,320.848C461.166,321.19 461.441,321.675 461.562,322.304L460.537,322.463C460.439,322.045 460.266,321.73 460.018,321.519C459.77,321.308 459.471,321.203 459.119,321.203C458.588,321.203 458.156,321.393 457.824,321.774C457.492,322.155 457.326,322.757 457.326,323.582C457.326,324.418 457.486,325.025 457.806,325.404C458.127,325.783 458.545,325.972 459.06,325.972C459.474,325.972 459.82,325.845 460.097,325.591C460.375,325.338 460.551,324.947 460.625,324.42Z" style="fill:url(#_Linear6);fill-rule:nonzero;"/>
            <path d="M466.056,326.699L466.056,318.109L472.267,318.109L472.267,319.123L467.193,319.123L467.193,321.754L471.945,321.754L471.945,322.761L467.193,322.761L467.193,325.685L472.467,325.685L472.467,326.699L466.056,326.699Z" style="fill:url(#_Linear7);fill-rule:nonzero;"/>
            <path d="M473.902,326.699L473.902,320.476L474.851,320.476L474.851,321.361C475.308,320.677 475.969,320.336 476.832,320.336C477.207,320.336 477.552,320.403 477.866,320.538C478.18,320.672 478.416,320.849 478.572,321.068C478.728,321.287 478.838,321.546 478.9,321.847C478.939,322.043 478.959,322.384 478.959,322.873L478.959,326.699L477.904,326.699L477.904,322.914C477.904,322.484 477.863,322.163 477.781,321.95C477.699,321.737 477.554,321.567 477.345,321.44C477.136,321.313 476.89,321.25 476.609,321.25C476.16,321.25 475.772,321.392 475.446,321.677C475.12,321.963 474.957,322.504 474.957,323.3L474.957,326.699L473.902,326.699Z" style="fill:url(#_Linear8);fill-rule:nonzero;"/>
            <path d="M484.836,324.695L485.926,324.83C485.754,325.466 485.435,325.961 484.971,326.312C484.506,326.664 483.912,326.839 483.189,326.839C482.279,326.839 481.557,326.559 481.024,325.999C480.491,325.438 480.224,324.652 480.224,323.64C480.224,322.593 480.494,321.781 481.033,321.203C481.572,320.625 482.271,320.336 483.131,320.336C483.963,320.336 484.642,320.619 485.17,321.185C485.697,321.752 485.961,322.548 485.961,323.576C485.961,323.638 485.959,323.732 485.955,323.857L481.314,323.857C481.353,324.541 481.547,325.064 481.894,325.427C482.242,325.791 482.676,325.972 483.195,325.972C483.582,325.972 483.912,325.871 484.185,325.668C484.459,325.464 484.676,325.14 484.836,324.695ZM481.373,322.99L484.847,322.99C484.801,322.466 484.668,322.074 484.449,321.812C484.113,321.406 483.678,321.203 483.142,321.203C482.658,321.203 482.251,321.365 481.921,321.689C481.591,322.013 481.408,322.447 481.373,322.99Z" style="fill:url(#_Linear9);fill-rule:nonzero;"/>
            <path d="M487.238,326.699L487.238,320.476L488.187,320.476L488.187,321.42C488.429,320.978 488.653,320.687 488.858,320.546C489.063,320.406 489.289,320.336 489.535,320.336C489.89,320.336 490.252,320.449 490.619,320.675L490.256,321.654C489.998,321.502 489.74,321.425 489.482,321.425C489.252,321.425 489.045,321.495 488.861,321.633C488.678,321.772 488.547,321.964 488.469,322.211C488.351,322.586 488.293,322.996 488.293,323.441L488.293,326.699L487.238,326.699Z" style="fill:url(#_Linear10);fill-rule:nonzero;"/>
            <path d="M491.053,327.214L492.078,327.367C492.121,327.683 492.24,327.914 492.435,328.058C492.697,328.254 493.054,328.351 493.508,328.351C493.996,328.351 494.373,328.254 494.638,328.058C494.904,327.863 495.084,327.589 495.178,327.238C495.232,327.023 495.258,326.572 495.254,325.884C494.793,326.427 494.219,326.699 493.531,326.699C492.676,326.699 492.013,326.39 491.545,325.773C491.076,325.156 490.842,324.416 490.842,323.552C490.842,322.959 490.949,322.411 491.164,321.909C491.379,321.407 491.69,321.019 492.098,320.746C492.507,320.472 492.986,320.336 493.537,320.336C494.271,320.336 494.877,320.632 495.353,321.226L495.353,320.476L496.326,320.476L496.326,325.855C496.326,326.824 496.227,327.51 496.03,327.915C495.833,328.319 495.52,328.638 495.093,328.873C494.665,329.107 494.138,329.224 493.513,329.224C492.771,329.224 492.172,329.057 491.715,328.723C491.258,328.389 491.037,327.886 491.053,327.214ZM491.926,323.476C491.926,324.293 492.088,324.888 492.412,325.263C492.736,325.638 493.142,325.826 493.631,325.826C494.115,325.826 494.521,325.639 494.849,325.266C495.178,324.893 495.342,324.308 495.342,323.511C495.342,322.75 495.173,322.175 494.835,321.789C494.497,321.402 494.09,321.209 493.613,321.209C493.144,321.209 492.746,321.399 492.418,321.78C492.09,322.161 491.926,322.726 491.926,323.476Z" style="fill:url(#_Linear11);fill-rule:nonzero;"/>
            <path d="M497.873,329.095L497.756,328.105C497.986,328.168 498.187,328.199 498.359,328.199C498.594,328.199 498.781,328.16 498.922,328.082C499.062,328.004 499.178,327.894 499.267,327.754C499.334,327.648 499.441,327.386 499.59,326.968C499.609,326.91 499.64,326.824 499.683,326.711L497.322,320.476L498.459,320.476L499.754,324.08C499.922,324.537 500.072,325.017 500.205,325.521C500.326,325.037 500.471,324.564 500.638,324.103L501.969,320.476L503.023,320.476L500.656,326.804C500.402,327.488 500.205,327.959 500.064,328.216C499.877,328.564 499.662,328.819 499.42,328.981C499.178,329.143 498.888,329.224 498.553,329.224C498.349,329.224 498.123,329.181 497.873,329.095Z" style="fill:url(#_Linear12);fill-rule:nonzero;"/>
        </g>
    </g>
    <defs>
        <linearGradient id="_Linear1" x1="0" y1="0" x2="1" y2="0" gradientUnits="userSpaceOnUse" gradientTransform="matrix(77.707,0,0,11.1152,425.316,323.667)"><stop offset="0" style="stop-color:rgb(255,255,157);stop-opacity:1"/><stop offset="0" style="stop-color:rgb(173,255,164);stop-opacity:1"/><stop offset="0.5" style="stop-color:rgb(125,255,157);stop-opacity:1"/><stop offset="1" style="stop-color:rgb(128,255,215);stop-opacity:1"/></linearGradient>
        <linearGradient id="_Linear2" x1="0" y1="0" x2="1" y2="0" gradientUnits="userSpaceOnUse" gradientTransform="matrix(77.707,0,0,11.1152,425.316,323.667)"><stop offset="0" style="stop-color:rgb(255,255,157);stop-opacity:1"/><stop offset="0" style="stop-color:rgb(173,255,164);stop-opacity:1"/><stop offset="0.5" style="stop-color:rgb(125,255,157);stop-opacity:1"/><stop offset="1" style="stop-color:rgb(128,255,215);stop-opacity:1"/></linearGradient>
        <linearGradient id="_Linear3" x1="0" y1="0" x2="1" y2="0" gradientUnits="userSpaceOnUse" gradientTransform="matrix(77.707,0,0,11.1152,425.316,323.667)"><stop offset="0" style="stop-color:rgb(255,255,157);stop-opacity:1"/><stop offset="0" style="stop-color:rgb(173,255,164);stop-opacity:1"/><stop offset="0.5" style="stop-color:rgb(125,255,157);stop-opacity:1"/><stop offset="1" style="stop-color:rgb(128,255,215);stop-opacity:1"/></linearGradient>
        <linearGradient id="_Linear4" x1="0" y1="0" x2="1" y2="0" gradientUnits="userSpaceOnUse" gradientTransform="matrix(77.707,0,0,11.1152,425.316,323.667)"><stop offset="0" style="stop-color:rgb(255,255,157);stop-opacity:1"/><stop offset="0" style="stop-color:rgb(173,255,164);stop-opacity:1"/><stop offset="0.5" style="stop-color:rgb(125,255,157);stop-opacity:1"/><stop offset="1" style="stop-color:rgb(128,255,215);stop-opacity:1"/></linearGradient>
        <linearGradient id="_Linear5" x1="0" y1="0" x2="1" y2="0" gradientUnits="userSpaceOnUse" gradientTransform="matrix(77.707,0,0,11.1152,425.316,323.667)"><stop offset="0" style="stop-color:rgb(255,255,157);stop-opacity:1"/><stop offset="0" style="stop-color:rgb(173,255,164);stop-opacity:1"/><stop offset="0.5" style="stop-color:rgb(125,255,157);stop-opacity:1"/><stop offset="1" style="stop-color:rgb(128,255,215);stop-opacity:1"/></linearGradient>
        <linearGradient id="_Linear6" x1="0" y1="0" x2="1" y2="0" gradientUnits="userSpaceOnUse" gradientTransform="matrix(77.707,0,0,11.1152,425.316,323.667)"><stop offset="0" style="stop-color:rgb(255,255,157);stop-opacity:1"/><stop offset="0" style="stop-color:rgb(173,255,164);stop-opacity:1"/><stop offset="0.5" style="stop-color:rgb(125,255,157);stop-opacity:1"/><stop offset="1" style="stop-color:rgb(128,255,215);stop-opacity:1"/></linearGradient>
        <linearGradient id="_Linear7" x1="0" y1="0" x2="1" y2="0" gradientUnits="userSpaceOnUse" gradientTransform="matrix(77.707,0,0,11.1152,425.316,323.667)"><stop offset="0" style="stop-color:rgb(255,255,157);stop-opacity:1"/><stop offset="0" style="stop-color:rgb(173,255,164);stop-opacity:1"/><stop offset="0.5" style="stop-color:rgb(125,255,157);stop-opacity:1"/><stop offset="1" style="stop-color:rgb(128,255,215);stop-opacity:1"/></linearGradient>
        <linearGradient id="_Linear8" x1="0" y1="0" x2="1" y2="0" gradientUnits="userSpaceOnUse" gradientTransform="matrix(77.707,0,0,11.1152,425.316,323.667)"><stop offset="0" style="stop-color:rgb(255,255,157);stop-opacity:1"/><stop offset="0" style="stop-color:rgb(173,255,164);stop-opacity:1"/><stop offset="0.5" style="stop-color:rgb(125,255,157);stop-opacity:1"/><stop offset="1" style="stop-color:rgb(128,255,215);stop-opacity:1"/></linearGradient>
        <linearGradient id="_Linear9" x1="0" y1="0" x2="1" y2="0" gradientUnits="userSpaceOnUse" gradientTransform="matrix(77.707,0,0,11.1152,425.316,323.667)"><stop offset="0" style="stop-color:rgb(255,255,157);stop-opacity:1"/><stop offset="0" style="stop-color:rgb(173,255,164);stop-opacity:1"/><stop offset="0.5" style="stop-color:rgb(125,255,157);stop-opacity:1"/><stop offset="1" style="stop-color:rgb(128,255,215);stop-opacity:1"/></linearGradient>
        <linearGradient id="_Linear10" x1="0" y1="0" x2="1" y2="0" gradientUnits="userSpaceOnUse" gradientTransform="matrix(77.707,0,0,11.1152,425.316,323.667)"><stop offset="0" style="stop-color:rgb(255,255,157);stop-opacity:1"/><stop offset="0" style="stop-color:rgb(173,255,164);stop-opacity:1"/><stop offset="0.5" style="stop-color:rgb(125,255,157);stop-opacity:1"/><stop offset="1" style="stop-color:rgb(128,255,215);stop-opacity:1"/></linearGradient>
        <linearGradient id="_Linear11" x1="0" y1="0" x2="1" y2="0" gradientUnits="userSpaceOnUse" gradientTransform="matrix(77.707,0,0,11.1152,425.316,323.667)"><stop offset="0" style="stop-color:rgb(255,255,157);stop-opacity:1"/><stop offset="0" style="stop-color:rgb(173,255,164);stop-opacity:1"/><stop offset="0.5" style="stop-color:rgb(125,255,157);stop-opacity:1"/><stop offset="1" style="stop-color:rgb(128,255,215);stop-opacity:1"/></linearGradient>
        <linearGradient id="_Linear12" x1="0" y1="0" x2="1" y2="0" gradientUnits="userSpaceOnUse" gradientTransform="matrix(77.707,0,0,11.1152,425.316,323.667)"><stop offset="0" style="stop-color:rgb(255,255,157);stop-opacity:1"/><stop offset="0" style="stop-color:rgb(173,255,164);stop-opacity:1"/><stop offset="0.5" style="stop-color:rgb(125,255,157);stop-opacity:1"/><stop offset="1" style="stop-color:rgb(128,255,215);stop-opacity:1"/></linearGradient>
    </defs>
</svg>
